<mxfile host="app.diagrams.net" modified="2025-10-28T00:00:00.000Z" agent="Claude Code" version="24.0.0">
  <diagram name="ECS Fargate構成図" id="ecs-fargate">
    <mxGraphModel dx="1422" dy="794" grid="1" gridSize="10" guides="1" tooltips="1" connect="1" arrows="1" fold="1" page="1" pageScale="1" pageWidth="1400" pageHeight="900" math="0" shadow="0">
      <root>
        <mxCell id="0" />
        <mxCell id="1" parent="0" />

        <!-- Title -->
        <mxCell id="title" value="ECS Fargate 構成図" style="text;html=1;strokeColor=none;fillColor=none;align=center;verticalAlign=middle;whiteSpace=wrap;rounded=0;fontSize=20;fontStyle=1" vertex="1" parent="1">
          <mxGeometry x="400" y="20" width="600" height="40" as="geometry" />
        </mxCell>

        <!-- VPC Container -->
        <mxCell id="vpc" value="VPC" style="swimlane;whiteSpace=wrap;html=1;fillColor=#e1d5e7;strokeColor=#9673a6;fontSize=16;fontStyle=1" vertex="1" parent="1">
          <mxGeometry x="100" y="100" width="1200" height="700" as="geometry" />
        </mxCell>

        <!-- ALB -->
        <mxCell id="alb-internal" value="ALB（内部）&#xa;業務API" style="rounded=1;whiteSpace=wrap;html=1;fillColor=#ef9a9a;strokeColor=#b71c1c;fontSize=14;fontStyle=1" vertex="1" parent="vpc">
          <mxGeometry x="200" y="80" width="200" height="80" as="geometry" />
        </mxCell>

        <mxCell id="alb-public" value="ALB（パブリック）&#xa;事業者API" style="rounded=1;whiteSpace=wrap;html=1;fillColor=#e57373;strokeColor=#b71c1c;fontSize=14;fontStyle=1" vertex="1" parent="vpc">
          <mxGeometry x="500" y="80" width="200" height="80" as="geometry" />
        </mxCell>

        <!-- ECS Services -->
        <mxCell id="ecs-staff" value="ECS Fargate&#xa;業務API&#xa;&#xa;2タスク&#xa;0.5vCPU / 1GB" style="rounded=1;whiteSpace=wrap;html=1;fillColor=#a5d6a7;strokeColor=#1b5e20;fontSize=12;align=center;" vertex="1" parent="vpc">
          <mxGeometry x="200" y="240" width="200" height="120" as="geometry" />
        </mxCell>

        <mxCell id="ecs-vendor" value="ECS Fargate&#xa;事業者API&#xa;&#xa;2タスク&#xa;0.5vCPU / 1GB" style="rounded=1;whiteSpace=wrap;html=1;fillColor=#81c784;strokeColor=#1b5e20;fontSize=12;align=center;" vertex="1" parent="vpc">
          <mxGeometry x="500" y="240" width="200" height="120" as="geometry" />
        </mxCell>

        <mxCell id="ecs-batch" value="ECS Fargate&#xa;バッチ&#xa;&#xa;1タスク&#xa;2vCPU / 4GB" style="rounded=1;whiteSpace=wrap;html=1;fillColor=#66bb6a;strokeColor=#1b5e20;fontSize=12;align=center;" vertex="1" parent="vpc">
          <mxGeometry x="800" y="240" width="200" height="120" as="geometry" />
        </mxCell>

        <!-- RDS -->
        <mxCell id="rds" value="RDS PostgreSQL 14&#xa;&#xa;db.t4g.medium&#xa;マルチAZ構成" style="rounded=1;whiteSpace=wrap;html=1;fillColor=#ffb74d;strokeColor=#d84315;fontSize=14;fontStyle=1;align=center;" vertex="1" parent="vpc">
          <mxGeometry x="350" y="450" width="300" height="120" as="geometry" />
        </mxCell>

        <!-- ECR -->
        <mxCell id="ecr" value="ECR&#xa;&#xa;Dockerイメージ保管" style="rounded=1;whiteSpace=wrap;html=1;fillColor=#ce93d8;strokeColor=#6a1b9a;fontSize=14;fontStyle=1;align=center;" vertex="1" parent="vpc">
          <mxGeometry x="850" y="450" width="250" height="120" as="geometry" />
        </mxCell>

        <!-- Arrows -->
        <mxCell id="arrow1" style="edgeStyle=orthogonalEdgeStyle;rounded=0;orthogonalLoop=1;jettySize=auto;html=1;strokeWidth=3;endArrow=block;endFill=1;strokeColor=#d79b00;" edge="1" parent="vpc" source="alb-internal" target="ecs-staff">
          <mxGeometry relative="1" as="geometry" />
        </mxCell>

        <mxCell id="arrow2" style="edgeStyle=orthogonalEdgeStyle;rounded=0;orthogonalLoop=1;jettySize=auto;html=1;strokeWidth=3;endArrow=block;endFill=1;strokeColor=#d79b00;" edge="1" parent="vpc" source="alb-public" target="ecs-vendor">
          <mxGeometry relative="1" as="geometry" />
        </mxCell>

        <mxCell id="arrow3" style="edgeStyle=orthogonalEdgeStyle;rounded=0;orthogonalLoop=1;jettySize=auto;html=1;strokeWidth=2;endArrow=block;endFill=1;strokeColor=#d84315;" edge="1" parent="vpc" source="ecs-staff" target="rds">
          <mxGeometry relative="1" as="geometry" />
        </mxCell>

        <mxCell id="arrow4" style="edgeStyle=orthogonalEdgeStyle;rounded=0;orthogonalLoop=1;jettySize=auto;html=1;strokeWidth=2;endArrow=block;endFill=1;strokeColor=#d84315;" edge="1" parent="vpc" source="ecs-vendor" target="rds">
          <mxGeometry relative="1" as="geometry" />
        </mxCell>

        <mxCell id="arrow5" style="edgeStyle=orthogonalEdgeStyle;rounded=0;orthogonalLoop=1;jettySize=auto;html=1;strokeWidth=2;endArrow=block;endFill=1;strokeColor=#d84315;" edge="1" parent="vpc" source="ecs-batch" target="rds">
          <mxGeometry relative="1" as="geometry" />
        </mxCell>

        <mxCell id="arrow6" style="edgeStyle=orthogonalEdgeStyle;rounded=0;orthogonalLoop=1;jettySize=auto;html=1;strokeWidth=2;endArrow=block;endFill=1;strokeColor=#6a1b9a;dashed=1;" edge="1" parent="vpc" source="ecs-staff" target="ecr">
          <mxGeometry relative="1" as="geometry" />
        </mxCell>

        <mxCell id="arrow7" style="edgeStyle=orthogonalEdgeStyle;rounded=0;orthogonalLoop=1;jettySize=auto;html=1;strokeWidth=2;endArrow=block;endFill=1;strokeColor=#6a1b9a;dashed=1;" edge="1" parent="vpc" source="ecs-vendor" target="ecr">
          <mxGeometry relative="1" as="geometry" />
        </mxCell>

        <mxCell id="arrow8" style="edgeStyle=orthogonalEdgeStyle;rounded=0;orthogonalLoop=1;jettySize=auto;html=1;strokeWidth=2;endArrow=block;endFill=1;strokeColor=#6a1b9a;dashed=1;" edge="1" parent="vpc" source="ecs-batch" target="ecr">
          <mxGeometry relative="1" as="geometry" />
        </mxCell>

      </root>
    </mxGraphModel>
  </diagram>
</mxfile>
